<svg xmlns="http://www.w3.org/2000/svg" width="18" height="18" viewBox="0 0 18 18" fill="none">
<mask id="mask0_1532_6346" style="mask-type:alpha" maskUnits="userSpaceOnUse" x="0" y="0" width="18" height="18">
<rect width="18" height="18" fill="#D9D9D9"/>
</mask>
<g mask="url(#mask0_1532_6346)">
<path d="M12.075 9.97461L10.9875 8.88711C11.1 8.29961 10.9313 7.74961 10.4813 7.23711C10.0312 6.72461 9.45 6.52461 8.7375 6.63711L7.65 5.54961C7.8625 5.44961 8.07812 5.37461 8.29688 5.32461C8.51562 5.27461 8.75 5.24961 9 5.24961C9.9375 5.24961 10.7344 5.57773 11.3906 6.23398C12.0469 6.89023 12.375 7.68711 12.375 8.62461C12.375 8.87461 12.35 9.10898 12.3 9.32773C12.25 9.54648 12.175 9.76211 12.075 9.97461ZM14.475 12.3371L13.3875 11.2871C13.8625 10.9246 14.2844 10.5277 14.6531 10.0965C15.0219 9.66524 15.3375 9.17461 15.6 8.62461C14.975 7.36211 14.0781 6.35898 12.9094 5.61523C11.7406 4.87148 10.4375 4.49961 9 4.49961C8.6375 4.49961 8.28125 4.52461 7.93125 4.57461C7.58125 4.62461 7.2375 4.69961 6.9 4.79961L5.7375 3.63711C6.25 3.42461 6.775 3.26523 7.3125 3.15898C7.85 3.05273 8.4125 2.99961 9 2.99961C10.8875 2.99961 12.5688 3.52148 14.0438 4.56523C15.5188 5.60898 16.5875 6.96211 17.25 8.62461C16.9625 9.36211 16.5844 10.0465 16.1156 10.6777C15.6469 11.309 15.1 11.8621 14.475 12.3371ZM14.85 16.9496L11.7 13.8371C11.2625 13.9746 10.8219 14.0777 10.3781 14.1465C9.93438 14.2152 9.475 14.2496 9 14.2496C7.1125 14.2496 5.43125 13.7277 3.95625 12.684C2.48125 11.6402 1.4125 10.2871 0.75 8.62461C1.0125 7.96211 1.34375 7.34649 1.74375 6.77773C2.14375 6.20898 2.6 5.69961 3.1125 5.24961L1.05 3.14961L2.1 2.09961L15.9 15.8996L14.85 16.9496ZM4.1625 6.29961C3.8 6.62461 3.46875 6.98086 3.16875 7.36836C2.86875 7.75586 2.6125 8.17461 2.4 8.62461C3.025 9.88711 3.92188 10.8902 5.09062 11.634C6.25938 12.3777 7.5625 12.7496 9 12.7496C9.25 12.7496 9.49375 12.734 9.73125 12.7027C9.96875 12.6715 10.2125 12.6371 10.4625 12.5996L9.7875 11.8871C9.65 11.9246 9.51875 11.9527 9.39375 11.9715C9.26875 11.9902 9.1375 11.9996 9 11.9996C8.0625 11.9996 7.26562 11.6715 6.60938 11.0152C5.95312 10.359 5.625 9.56211 5.625 8.62461C5.625 8.48711 5.63438 8.35586 5.65312 8.23086C5.67188 8.10586 5.7 7.97461 5.7375 7.83711L4.1625 6.29961Z" fill="#424242"/>
</g>
</svg>