<svg xmlns="http://www.w3.org/2000/svg" width="24" height="24" viewBox="0 0 24 24" fill="none">
<mask id="mask0_1498_3794" style="mask-type:alpha" maskUnits="userSpaceOnUse" x="0" y="0" width="24" height="24">
<rect width="24" height="24" fill="#0C0C0C"/>
</mask>
<g mask="url(#mask0_1498_3794)">
<path d="M11 16.9995H13V10.9995H11V16.9995ZM12 8.99951C12.2833 8.99951 12.5208 8.90368 12.7125 8.71201C12.9042 8.52035 13 8.28285 13 7.99951C13 7.71618 12.9042 7.47868 12.7125 7.28701C12.5208 7.09535 12.2833 6.99951 12 6.99951C11.7167 6.99951 11.4792 7.09535 11.2875 7.28701C11.0958 7.47868 11 7.71618 11 7.99951C11 8.28285 11.0958 8.52035 11.2875 8.71201C11.4792 8.90368 11.7167 8.99951 12 8.99951ZM12 21.9995C10.6167 21.9995 9.31667 21.737 8.1 21.212C6.88333 20.687 5.825 19.9745 4.925 19.0745C4.025 18.1745 3.3125 17.1162 2.7875 15.8995C2.2625 14.6828 2 13.3828 2 11.9995C2 10.6162 2.2625 9.31618 2.7875 8.09951C3.3125 6.88284 4.025 5.82451 4.925 4.92451C5.825 4.02451 6.88333 3.31201 8.1 2.78701C9.31667 2.26201 10.6167 1.99951 12 1.99951C13.3833 1.99951 14.6833 2.26201 15.9 2.78701C17.1167 3.31201 18.175 4.02451 19.075 4.92451C19.975 5.82451 20.6875 6.88284 21.2125 8.09951C21.7375 9.31618 22 10.6162 22 11.9995C22 13.3828 21.7375 14.6828 21.2125 15.8995C20.6875 17.1162 19.975 18.1745 19.075 19.0745C18.175 19.9745 17.1167 20.687 15.9 21.212C14.6833 21.737 13.3833 21.9995 12 21.9995ZM12 19.9995C14.2333 19.9995 16.125 19.2245 17.675 17.6745C19.225 16.1245 20 14.2328 20 11.9995C20 9.76618 19.225 7.87451 17.675 6.32451C16.125 4.77451 14.2333 3.99951 12 3.99951C9.76667 3.99951 7.875 4.77451 6.325 6.32451C4.775 7.87451 4 9.76618 4 11.9995C4 14.2328 4.775 16.1245 6.325 17.6745C7.875 19.2245 9.76667 19.9995 12 19.9995Z" fill="#9E9E9E"/>
</g>
</svg>