<svg xmlns="http://www.w3.org/2000/svg" width="20" height="20" viewBox="0 0 20 20" fill="none">
<path d="M9 14.9995H11V8.99951H9V14.9995ZM10 6.99951C10.2833 6.99951 10.5208 6.90368 10.7125 6.71201C10.9042 6.52035 11 6.28285 11 5.99951C11 5.71618 10.9042 5.47868 10.7125 5.28701C10.5208 5.09535 10.2833 4.99951 10 4.99951C9.71667 4.99951 9.47917 5.09535 9.2875 5.28701C9.09583 5.47868 9 5.71618 9 5.99951C9 6.28285 9.09583 6.52035 9.2875 6.71201C9.47917 6.90368 9.71667 6.99951 10 6.99951ZM10 19.9995C8.61667 19.9995 7.31667 19.737 6.1 19.212C4.88333 18.687 3.825 17.9745 2.925 17.0745C2.025 16.1745 1.3125 15.1162 0.7875 13.8995C0.2625 12.6828 0 11.3828 0 9.99951C0 8.61618 0.2625 7.31618 0.7875 6.09951C1.3125 4.88284 2.025 3.82451 2.925 2.92451C3.825 2.02451 4.88333 1.31201 6.1 0.787012C7.31667 0.262012 8.61667 -0.000488281 10 -0.000488281C11.3833 -0.000488281 12.6833 0.262012 13.9 0.787012C15.1167 1.31201 16.175 2.02451 17.075 2.92451C17.975 3.82451 18.6875 4.88284 19.2125 6.09951C19.7375 7.31618 20 8.61618 20 9.99951C20 11.3828 19.7375 12.6828 19.2125 13.8995C18.6875 15.1162 17.975 16.1745 17.075 17.0745C16.175 17.9745 15.1167 18.687 13.9 19.212C12.6833 19.737 11.3833 19.9995 10 19.9995ZM10 17.9995C12.2333 17.9995 14.125 17.2245 15.675 15.6745C17.225 14.1245 18 12.2328 18 9.99951C18 7.76618 17.225 5.87451 15.675 4.32451C14.125 2.77451 12.2333 1.99951 10 1.99951C7.76667 1.99951 5.875 2.77451 4.325 4.32451C2.775 5.87451 2 7.76618 2 9.99951C2 12.2328 2.775 14.1245 4.325 15.6745C5.875 17.2245 7.76667 17.9995 10 17.9995Z" fill="#9E9E9E"/>
</svg>