<svg width="18" height="19" viewBox="0 0 18 19" fill="none" xmlns="http://www.w3.org/2000/svg">
<path d="M4 14.7695H6V7.76953H4V14.7695ZM8 14.7695H10V4.76953H8V14.7695ZM12 14.7695H14V10.7695H12V14.7695ZM2 18.7695C1.45 18.7695 0.979167 18.5737 0.5875 18.182C0.195833 17.7904 0 17.3195 0 16.7695V2.76953C0 2.21953 0.195833 1.7487 0.5875 1.35703C0.979167 0.965365 1.45 0.769531 2 0.769531H16C16.55 0.769531 17.0208 0.965365 17.4125 1.35703C17.8042 1.7487 18 2.21953 18 2.76953V16.7695C18 17.3195 17.8042 17.7904 17.4125 18.182C17.0208 18.5737 16.55 18.7695 16 18.7695H2ZM2 16.7695H16V2.76953H2V16.7695Z" fill="white"/>
</svg>
