<svg width="18" height="19" viewBox="0 0 18 19" fill="none" xmlns="http://www.w3.org/2000/svg">
<path d="M4 14.2305H6V7.23047H4V14.2305ZM8 14.2305H10V4.23047H8V14.2305ZM12 14.2305H14V10.2305H12V14.2305ZM2 18.2305C1.45 18.2305 0.979167 18.0346 0.5875 17.643C0.195833 17.2513 0 16.7805 0 16.2305V2.23047C0 1.68047 0.195833 1.20964 0.5875 0.817969C0.979167 0.426302 1.45 0.230469 2 0.230469H16C16.55 0.230469 17.0208 0.426302 17.4125 0.817969C17.8042 1.20964 18 1.68047 18 2.23047V16.2305C18 16.7805 17.8042 17.2513 17.4125 17.643C17.0208 18.0346 16.55 18.2305 16 18.2305H2ZM2 16.2305H16V2.23047H2V16.2305Z" fill="#697077"/>
</svg>
