<svg xmlns="http://www.w3.org/2000/svg" width="202" height="29" viewBox="0 0 202 29" fill="none">
<path d="M2.42503 28.453C1.65454 28.453 1.10708 28.3381 0.774551 28.1122C0.442021 27.8864 0.231149 27.5826 0.137878 27.2049C0.0446077 26.8312 0 26.4124 0 25.9567V2.7793C0 1.83907 0.186542 1.19856 0.555569 0.849566C0.924596 0.500571 1.58966 0.328125 2.54264 0.328125H18.0012C18.4513 0.328125 18.8569 0.373291 19.2137 0.467725C19.5706 0.562159 19.8545 0.783871 20.0694 1.13287C20.2803 1.48186 20.3857 2.04436 20.3857 2.82447C20.3857 3.57583 20.2721 4.1178 20.0491 4.45448C19.822 4.79116 19.526 5.00466 19.1529 5.09909C18.7798 5.19353 18.3702 5.23869 17.9201 5.23869H4.84601V11.9599H13.8284C14.2785 11.9599 14.6759 12.0092 15.0206 12.0995C15.3653 12.194 15.6248 12.3951 15.7952 12.7031C15.9655 13.011 16.0547 13.516 16.0547 14.214C16.0547 14.8833 15.9614 15.3678 15.7749 15.6634C15.5883 15.959 15.3329 16.1479 15.0003 16.2259C14.6678 16.308 14.2663 16.3449 13.7878 16.3449H4.84601V26.0018C4.84601 26.4576 4.8014 26.8682 4.70813 27.2295C4.61486 27.5908 4.39588 27.8864 4.05118 28.1163C3.70649 28.3381 3.16309 28.453 2.42503 28.453Z" fill="#424242"/>
<path d="M37.4499 28.3701C36.655 28.3701 36.0792 28.2223 35.7223 27.9267C35.3655 27.6311 35.1708 27.2287 35.1465 26.7196L35.4263 25.3934C35.2154 25.7424 34.8545 26.153 34.3517 26.621C33.8488 27.0891 33.1919 27.5079 32.3849 27.8692C31.5779 28.2305 30.5884 28.4112 29.4245 28.4112C28.1796 28.4112 27.0076 28.1484 25.9086 27.627C24.8097 27.1055 23.8364 26.3788 22.9889 25.455C22.1413 24.5312 21.4803 23.4719 21.0018 22.2771C20.5233 21.0823 20.2881 19.8013 20.2881 18.434C20.2881 17.1202 20.5273 15.8802 21.0018 14.7141C21.4803 13.5481 22.1494 12.5093 23.0092 11.5937C23.8689 10.6822 24.8421 9.9637 25.9289 9.44226C27.0157 8.92082 28.1796 8.65805 29.4245 8.65805C30.483 8.65805 31.3913 8.80586 32.1456 9.10147C32.8999 9.39709 33.5447 9.76662 34.0718 10.2101C34.6031 10.6535 35.037 11.1174 35.3817 11.5978L35.183 10.4318C35.1546 9.84053 35.329 9.39299 35.698 9.08505C36.067 8.77712 36.6631 8.62109 37.4864 8.62109C38.2001 8.62109 38.7232 8.73606 39.0557 8.96188C39.3883 9.1918 39.591 9.50385 39.6721 9.90622C39.7532 10.3086 39.7897 10.752 39.7897 11.2324V25.9189C39.7897 26.3747 39.7492 26.7894 39.6721 27.1671C39.591 27.5448 39.3883 27.8364 39.0557 28.054C38.7273 28.2634 38.192 28.3701 37.4499 28.3701ZM30.1383 23.7018C31.0142 23.7018 31.8131 23.476 32.543 23.0161C33.273 22.5604 33.8488 21.9363 34.2706 21.1439C34.6923 20.3514 34.9072 19.4728 34.9072 18.5079C34.9072 17.4897 34.6882 16.5905 34.2503 15.8104C33.8123 15.0344 33.2243 14.4144 32.4822 13.9587C31.7401 13.5029 30.9331 13.273 30.0572 13.273C29.0758 13.273 28.2039 13.507 27.4334 13.9751C26.6629 14.4432 26.0627 15.0755 25.6248 15.8679C25.1868 16.6603 24.9678 17.5513 24.9678 18.5449C24.9678 19.5097 25.1909 20.3843 25.6451 21.1603C26.0952 21.9404 26.7116 22.5563 27.4942 23.012C28.2769 23.476 29.1569 23.7018 30.1383 23.7018Z" fill="#424242"/>
<path d="M46.0759 28.4525C45.3338 28.4525 44.7985 28.3375 44.4659 28.1117C44.1334 27.8859 43.9306 27.582 43.8495 27.2043C43.7684 26.8307 43.7319 26.4119 43.7319 25.9561V11.0274C43.7319 10.5716 43.7765 10.1569 43.8698 9.77919C43.9631 9.40556 44.174 9.11405 44.5065 8.91286C44.839 8.71168 45.3743 8.61314 46.1164 8.61314C46.8301 8.61314 47.3533 8.70757 47.6858 8.89644C48.0183 9.0853 48.2292 9.32755 48.3225 9.61906C48.4157 9.91468 48.4603 10.1816 48.4603 10.4238L48.144 11.1464C48.2779 10.9329 48.4603 10.6702 48.6996 10.3622C48.9389 10.0543 49.2552 9.74634 49.6526 9.43841C50.05 9.13047 50.5285 8.87591 51.0841 8.67472C51.6396 8.47354 52.3007 8.375 53.0711 8.375C53.3875 8.375 53.7281 8.40785 54.085 8.47765C54.4418 8.54334 54.7987 8.63777 55.1596 8.76095C55.5165 8.88002 55.8409 9.03603 56.1329 9.2249C56.4248 9.41377 56.6479 9.63549 56.8101 9.89005C56.9682 10.1446 57.0493 10.432 57.0493 10.7564C57.0493 11.6145 56.8385 12.3412 56.4127 12.9284C55.9869 13.5196 55.484 13.8152 54.9041 13.8152C54.5067 13.8152 54.2147 13.7742 54.0282 13.6961C53.8416 13.614 53.6916 13.5278 53.5699 13.4334C53.4523 13.3389 53.278 13.2527 53.0549 13.1706C52.8278 13.0885 52.4791 13.0515 52.0006 13.0515C51.6032 13.0515 51.1976 13.1172 50.788 13.2527C50.3785 13.3882 49.9973 13.5894 49.6566 13.8563C49.3119 14.1232 49.0321 14.4598 48.8213 14.8622C48.6104 15.2646 48.505 15.7326 48.505 16.2705V26.0465C48.505 26.5022 48.4644 26.9128 48.3873 27.2741C48.3062 27.6354 48.0954 27.9228 47.7507 28.1404C47.3979 28.3416 46.8423 28.4525 46.0759 28.4525Z" fill="#424242"/>
<path d="M62.527 28.4132C61.7849 28.4132 61.2496 28.3064 60.9171 28.0929C60.5846 27.8794 60.3818 27.5838 60.3007 27.2061C60.2196 26.8324 60.1831 26.43 60.1831 25.9989V10.9921C60.1831 10.5364 60.2277 10.134 60.321 9.78503C60.4143 9.43604 60.6251 9.15684 60.9577 8.93924C61.2902 8.72573 61.8376 8.61898 62.6081 8.61898C63.3746 8.61898 63.9383 8.77911 64.2992 9.10347C64.656 9.42372 64.8345 9.94927 64.8345 10.6719L64.4776 11.7599C64.6114 11.4643 64.8345 11.1441 65.1548 10.7951C65.4711 10.4461 65.8645 10.0971 66.3268 9.74808C66.7891 9.39909 67.3122 9.11989 67.8962 8.90229C68.4801 8.68878 69.0884 8.58203 69.7251 8.58203C70.601 8.58203 71.3999 8.72984 72.1298 9.02546C72.8598 9.32108 73.5086 9.74809 74.0764 10.3147C74.6441 10.8772 75.1429 11.5629 75.5646 12.3676C76.0148 11.6696 76.5176 11.0332 77.0732 10.4584C77.6287 9.88357 78.2776 9.42783 79.0197 9.09115C79.7618 8.75447 80.5972 8.58613 81.5218 8.58613C83.0587 8.58613 84.3483 8.97619 85.3945 9.75219C86.4408 10.5323 87.2275 11.6368 87.7587 13.0697C88.29 14.5067 88.5536 16.2148 88.5536 18.202V26.0072C88.5536 26.4629 88.513 26.8735 88.436 27.2348C88.3549 27.5961 88.1521 27.8835 87.8196 28.1011C87.487 28.3146 86.9396 28.4214 86.1691 28.4214C85.427 28.4214 84.8917 28.3064 84.5592 28.0806C84.2266 27.8548 84.0239 27.5592 83.9428 27.1937C83.8616 26.8324 83.8252 26.4218 83.8252 25.9661V18.1609C83.8252 17.1673 83.7076 16.3092 83.4683 15.5866C83.229 14.8639 82.8722 14.3055 82.3937 13.9155C81.9151 13.5254 81.3069 13.3325 80.5647 13.3325C79.7942 13.3325 79.1292 13.5213 78.5574 13.895C77.9856 14.2727 77.5436 14.8188 77.2273 15.5455C76.911 16.2722 76.7488 17.155 76.7488 18.202V26.0482C76.7488 26.504 76.6839 26.9269 76.5501 27.3169C76.4162 27.707 76.1608 28.0026 75.7755 28.2038C75.3903 28.4049 74.8428 28.4789 74.125 28.4255C73.4356 28.3967 72.9409 28.2654 72.6327 28.0231C72.3286 27.7809 72.142 27.4811 72.0771 27.1157C72.0122 26.7544 71.9757 26.3726 71.9757 25.9702V18.165C71.9757 17.1714 71.8622 16.3133 71.6392 15.5907C71.4121 14.868 71.0633 14.3097 70.5848 13.9196C70.1063 13.5296 69.498 13.3366 68.7559 13.3366C67.9327 13.3366 67.2392 13.546 66.6715 13.9607C66.0997 14.3753 65.6698 14.9543 65.3779 15.6892C65.0859 16.4283 64.9399 17.2535 64.9399 18.165V26.0523C64.9399 26.4834 64.8953 26.8858 64.802 27.2594C64.7088 27.6372 64.4979 27.9246 64.1654 28.1258C63.845 28.3105 63.2935 28.4132 62.527 28.4132Z" fill="#424242"/>
<path d="M108.863 28.3721C108.069 28.3721 107.493 28.2243 107.136 27.9286C106.779 27.633 106.584 27.2306 106.56 26.7215L106.84 25.3953C106.629 25.7443 106.268 26.1549 105.765 26.623C105.262 27.0911 104.605 27.5098 103.798 27.8712C102.991 28.2325 102.002 28.4131 100.838 28.4131C99.5932 28.4131 98.4212 28.1504 97.3222 27.6289C96.2233 27.1075 95.25 26.3807 94.4025 25.4569C93.5549 24.5331 92.8939 23.4738 92.4154 22.279C91.9369 21.0842 91.7017 19.8032 91.7017 18.436C91.7017 17.1221 91.9409 15.8821 92.4154 14.7161C92.8939 13.55 93.563 12.5113 94.4227 11.5957C95.2824 10.6842 96.2557 9.96565 97.3425 9.44421C98.4293 8.92277 99.5932 8.66 100.838 8.66C101.897 8.66 102.805 8.80781 103.559 9.10343C104.313 9.39905 104.958 9.76858 105.485 10.212C106.017 10.6554 106.451 11.1194 106.795 11.5998L106.597 10.4337C106.568 9.84248 106.743 9.39494 107.112 9.08701C107.481 8.77907 108.077 8.62305 108.9 8.62305C109.614 8.62305 110.137 8.73801 110.469 8.96383C110.802 9.19376 111.005 9.5058 111.086 9.90817C111.167 10.3105 111.203 10.754 111.203 11.2344V25.9209C111.203 26.3766 111.163 26.7913 111.086 27.1691C111.005 27.5468 110.802 27.8383 110.469 28.0559C110.145 28.2653 109.606 28.3721 108.863 28.3721ZM101.552 23.7037C102.428 23.7037 103.227 23.4779 103.957 23.0181C104.687 22.5623 105.262 21.9382 105.684 21.1458C106.106 20.3534 106.321 19.4747 106.321 18.5099C106.321 17.4916 106.102 16.5925 105.664 15.8123C105.226 15.0363 104.638 14.4164 103.896 13.9606C103.154 13.5049 102.347 13.2749 101.471 13.2749C100.489 13.2749 99.6175 13.509 98.847 13.977C98.0765 14.4451 97.4763 15.0774 97.0384 15.8698C96.6004 16.6623 96.3814 17.5532 96.3814 18.5468C96.3814 19.5117 96.6044 20.3862 97.0586 21.1622C97.5088 21.9423 98.1252 22.5582 98.9078 23.014C99.6905 23.4779 100.57 23.7037 101.552 23.7037Z" fill="#424242"/>
<path d="M127.465 28.4524C126.986 28.4524 126.597 28.3785 126.293 28.2307C125.989 28.0829 125.758 27.8365 125.599 27.4875L115.502 2.61853C115.238 1.97392 115.198 1.51817 115.384 1.25129C115.571 0.984416 115.94 0.701115 116.495 0.405496C116.893 0.216628 117.229 0.118087 117.509 0.105769C117.789 0.0934517 118.04 0.171464 118.263 0.348014C118.487 0.524565 118.681 0.82429 118.839 1.2554L127.465 23.3858L136.009 1.57566C136.196 1.17328 136.378 0.836608 136.565 0.569729C136.751 0.302851 137.007 0.146827 137.339 0.105769C137.672 0.0647109 138.073 0.179675 138.552 0.446553C139.294 0.824289 139.663 1.21024 139.663 1.61261C139.663 2.01498 139.558 2.47072 139.347 2.97985L129.33 27.4424C129.196 27.7626 128.973 28.0131 128.653 28.1855C128.337 28.3621 127.939 28.4524 127.465 28.4524Z" fill="#00838F"/>
<path d="M146.3 4.14688C145.716 4.14688 145.278 4.06066 144.99 3.88411C144.698 3.71166 144.508 3.46121 144.414 3.14095C144.321 2.8207 144.276 2.44296 144.276 2.01596C144.276 1.58895 144.321 1.21943 144.414 0.907387C144.508 0.59945 144.706 0.369525 145.01 0.221715C145.315 0.0739052 145.757 0 146.34 0C146.896 0 147.322 0.082115 147.614 0.242242C147.906 0.402369 148.096 0.644614 148.19 0.964868C148.283 1.28512 148.328 1.67517 148.328 2.13092C148.328 2.53329 148.283 2.8905 148.19 3.19844C148.096 3.50637 147.906 3.7404 147.614 3.90464C147.318 4.06887 146.884 4.14688 146.3 4.14688ZM146.3 28.4534C145.797 28.4534 145.412 28.3795 145.148 28.2316C144.885 28.0838 144.718 27.8744 144.654 27.6076C144.589 27.3407 144.552 27.0163 144.552 26.6427V10.749C144.552 10.4001 144.593 10.0839 144.67 9.80471C144.747 9.52551 144.913 9.31611 145.164 9.18062C145.416 9.04513 145.805 8.97944 146.336 8.97944C146.839 8.97944 147.212 9.05334 147.448 9.20115C147.687 9.34896 147.845 9.56247 147.926 9.84577C148.007 10.1291 148.044 10.4575 148.044 10.8312V26.6838C148.044 27.0615 148.003 27.3817 147.926 27.6486C147.845 27.9155 147.679 28.1167 147.427 28.2522C147.18 28.3836 146.803 28.4534 146.3 28.4534Z" fill="#00838F"/>
<path d="M162.316 28.6557C160.726 28.6557 159.307 28.3888 158.062 27.8509C156.817 27.3131 155.762 26.5822 154.903 25.6584C154.043 24.7346 153.378 23.6671 152.916 22.46C152.453 21.2529 152.222 19.9513 152.222 18.5553C152.222 16.7036 152.644 15.0531 153.496 13.6078C154.343 12.1585 155.523 11.0129 157.032 10.1671C158.54 9.32134 160.264 8.89844 162.198 8.89844C163.524 8.89844 164.708 9.10784 165.755 9.52252C166.801 9.93721 167.697 10.4956 168.439 11.1936C169.181 11.8916 169.749 12.6676 170.146 13.5257C170.544 14.3838 170.742 15.2419 170.742 16.1001C170.742 17.4673 170.426 18.4322 169.789 18.9988C169.153 19.5613 168.37 19.8446 167.446 19.8446H155.961C155.933 20.9983 156.245 21.996 156.894 22.8418C157.543 23.6876 158.366 24.3363 159.359 24.7921C160.353 25.2478 161.355 25.4778 162.36 25.4778C163.074 25.4778 163.707 25.4367 164.25 25.3587C164.793 25.2766 165.264 25.1698 165.661 25.0384C166.059 24.9029 166.395 24.7716 166.675 24.6361C166.955 24.5006 167.21 24.3692 167.45 24.2337C167.689 24.0982 167.912 24.0079 168.127 23.9504C168.338 23.897 168.565 23.9176 168.804 24.012C169.043 24.1064 169.226 24.2871 169.36 24.5539C169.518 24.7675 169.623 24.9686 169.676 25.1575C169.729 25.3464 169.757 25.5476 169.757 25.7611C169.757 26.1634 169.441 26.5863 168.804 27.0298C168.167 27.4732 167.287 27.855 166.16 28.1753C165.025 28.4914 163.747 28.6557 162.316 28.6557ZM155.957 17.4262H165.933C166.411 17.4262 166.78 17.3605 167.044 17.2251C167.308 17.0896 167.441 16.7282 167.441 16.137C167.441 15.4144 167.214 14.741 166.764 14.1252C166.314 13.5093 165.698 13.0125 164.915 12.6347C164.132 12.2611 163.228 12.0722 162.194 12.0722C161.054 12.0722 160 12.3063 159.035 12.7743C158.066 13.2424 157.307 13.8788 156.752 14.6835C156.196 15.4883 155.933 16.408 155.957 17.4262Z" fill="#00838F"/>
<path d="M181.391 28.3711C180.993 28.3711 180.681 28.3054 180.458 28.1699C180.231 28.0344 180.061 27.8702 179.943 27.6649C179.825 27.4637 179.724 27.242 179.647 26.9998L173.528 11.1472C173.394 10.7448 173.337 10.4164 173.349 10.1618C173.361 9.90723 173.467 9.6773 173.666 9.47612C173.864 9.27493 174.16 9.1066 174.562 8.9711C175.198 8.72886 175.689 8.67138 176.034 8.79045C176.379 8.90952 176.654 9.26673 176.869 9.85796L181.399 22.0892L185.612 10.1372C185.693 9.92365 185.791 9.71426 185.908 9.51307C186.026 9.31188 186.208 9.14355 186.444 9.00806C186.683 8.87256 186.987 8.80687 187.356 8.80687C187.778 8.80687 188.106 8.87256 188.329 9.00806C188.552 9.14355 188.739 9.30368 188.885 9.49255C189.031 9.68141 189.128 9.8826 189.181 10.0961L193.354 22.1672L197.843 10.0961C198.107 9.42685 198.411 8.99574 198.755 8.80687C199.1 8.61801 199.591 8.64675 200.227 8.88899C200.783 9.07786 201.16 9.35295 201.359 9.71426C201.558 10.0756 201.525 10.5683 201.257 11.1841L195.098 27.0367C195.016 27.2502 194.919 27.4596 194.797 27.6608C194.68 27.862 194.505 28.0303 194.282 28.1658C194.055 28.3013 193.759 28.367 193.386 28.367C193.013 28.367 192.717 28.3054 192.49 28.1864C192.263 28.0673 192.093 27.8907 191.975 27.6649C191.857 27.4391 191.744 27.1886 191.638 26.9218L187.384 14.5304L183.094 26.9218C182.989 27.242 182.875 27.513 182.757 27.7265C182.64 27.94 182.474 28.1001 182.263 28.211C182.052 28.3178 181.764 28.3711 181.391 28.3711Z" fill="#00838F"/>
</svg>