<svg xmlns="http://www.w3.org/2000/svg" width="149" height="67" viewBox="0 0 149 67" fill="none">
  <path d="M3.1816 36.8815C2.17072 36.8815 1.45247 36.7307 1.0162 36.4345C0.579923 36.1384 0.303263 35.7399 0.180894 35.2445C0.0585244 34.7544 0 34.2052 0 33.6074V3.21481C0 1.98166 0.24474 1.14161 0.728896 0.683886C1.21305 0.226166 2.0856 0 3.33589 0H23.6172C24.2078 0 24.7398 0.0592324 25.208 0.183086C25.6762 0.30694 26.0487 0.597728 26.3306 1.05545C26.6073 1.51317 26.7456 2.2509 26.7456 3.27404C26.7456 4.25949 26.5967 4.9703 26.304 5.41187C26.0061 5.85343 25.6177 6.13345 25.1282 6.2573C24.6388 6.38116 24.1014 6.44039 23.5108 6.44039H6.36319V15.2555H18.1479C18.7384 15.2555 19.2598 15.3202 19.7121 15.4386C20.1643 15.5625 20.5048 15.8264 20.7283 16.2302C20.9517 16.6341 21.0688 17.2964 21.0688 18.2119C21.0688 19.0896 20.9464 19.725 20.7017 20.1128C20.4569 20.5005 20.1217 20.7482 19.6855 20.8505C19.2492 20.9582 18.7225 21.0067 18.0947 21.0067H6.36319V33.6721C6.36319 34.2698 6.30467 34.8083 6.1823 35.2822C6.05993 35.756 5.77263 36.1437 5.3204 36.4453C4.86816 36.7307 4.15523 36.8815 3.1816 36.8815Z" fill="white"/>
  <path d="M49.1331 36.7739C48.0903 36.7739 47.3348 36.58 46.8666 36.1923C46.3984 35.8046 46.143 35.2769 46.1111 34.6092L46.4782 32.8698C46.2016 33.3275 45.728 33.866 45.0683 34.4799C44.4086 35.0938 43.5467 35.6431 42.4879 36.1169C41.4292 36.5908 40.131 36.8278 38.604 36.8278C36.9707 36.8278 35.4331 36.4831 33.9913 35.7992C32.5494 35.1153 31.2725 34.1622 30.1606 32.9506C29.0486 31.739 28.1814 30.3497 27.5536 28.7826C26.9258 27.2156 26.6172 25.5355 26.6172 23.7423C26.6172 22.0192 26.9311 20.3929 27.5536 18.8636C28.1814 17.3343 29.0592 15.9719 30.1872 14.771C31.3151 13.5756 32.592 12.6332 34.0179 11.9493C35.4437 11.2654 36.9707 10.9208 38.604 10.9208C39.9927 10.9208 41.1844 11.1146 42.174 11.5024C43.1636 11.8901 44.0096 12.3747 44.7012 12.9563C45.3982 13.5379 45.9675 14.1464 46.4197 14.7764L46.159 13.2471C46.1218 12.4716 46.3505 11.8847 46.8347 11.4808C47.3188 11.0769 48.1009 10.8723 49.181 10.8723C50.1174 10.8723 50.8037 11.0231 51.24 11.3193C51.6763 11.6208 51.9423 12.0301 52.0487 12.5578C52.1551 13.0855 52.203 13.6671 52.203 14.2971V33.5591C52.203 34.1568 52.1498 34.7007 52.0487 35.1961C51.9423 35.6915 51.6763 36.0739 51.24 36.3593C50.809 36.6339 50.1067 36.7739 49.1331 36.7739ZM39.5404 30.6566C40.6896 30.6566 41.7378 30.3604 42.6954 29.7573C43.6531 29.1596 44.4086 28.3411 44.9619 27.3018C45.5152 26.2625 45.7972 25.1101 45.7972 23.8446C45.7972 22.5092 45.5099 21.3299 44.9353 20.3067C44.3607 19.289 43.5892 18.4759 42.6156 17.8781C41.642 17.2804 40.5832 16.9788 39.434 16.9788C38.1465 16.9788 37.0026 17.2858 35.9917 17.8997C34.9808 18.5136 34.1934 19.3428 33.6188 20.3821C33.0442 21.4214 32.7569 22.59 32.7569 23.8931C32.7569 25.1586 33.0495 26.3056 33.6454 27.3233C34.236 28.3465 35.0447 29.1542 36.0715 29.7519C37.0984 30.355 38.2529 30.6566 39.5404 30.6566Z" fill="white"/>
  <path d="M60.4502 36.8811C59.4766 36.8811 58.7743 36.7303 58.3381 36.4342C57.9018 36.138 57.6358 35.7395 57.5293 35.2441C57.4229 34.7541 57.3751 34.2048 57.3751 33.6071V14.0274C57.3751 13.4297 57.4336 12.8858 57.556 12.3904C57.6783 11.9004 57.955 11.518 58.3913 11.2542C58.8275 10.9903 59.5298 10.8611 60.5034 10.8611C61.4398 10.8611 62.1262 10.9849 62.5624 11.2326C62.9987 11.4803 63.2754 11.798 63.3977 12.1804C63.5201 12.5681 63.5786 12.9181 63.5786 13.2358L63.1636 14.1836C63.3392 13.9036 63.5786 13.5589 63.8925 13.1551C64.2064 12.7512 64.6214 12.3473 65.1428 11.9434C65.6642 11.5396 66.292 11.2057 67.0209 10.9418C67.7498 10.678 68.6171 10.5487 69.6279 10.5487C70.0429 10.5487 70.4898 10.5918 70.958 10.6834C71.4262 10.7695 71.8944 10.8934 72.3679 11.0549C72.8361 11.2111 73.2618 11.4157 73.6448 11.6634C74.0279 11.9111 74.3205 12.2019 74.5333 12.5358C74.7408 12.8696 74.8472 13.2466 74.8472 13.672C74.8472 14.7975 74.5706 15.7506 74.0119 16.5206C73.4533 17.2961 72.7936 17.6838 72.0327 17.6838C71.5113 17.6838 71.1283 17.6299 70.8835 17.5276C70.6388 17.4199 70.4419 17.3068 70.2823 17.183C70.128 17.0591 69.8993 16.9461 69.6066 16.8384C69.3087 16.7307 68.8512 16.6822 68.2233 16.6822C67.7019 16.6822 67.1699 16.7684 66.6325 16.9461C66.0952 17.1238 65.6004 17.3876 65.1482 17.7376C64.6959 18.0877 64.3288 18.5292 64.0521 19.057C63.7755 19.5847 63.6372 20.1986 63.6372 20.904V33.7255C63.6372 34.3233 63.584 34.8618 63.4829 35.3356C63.3765 35.8095 63.0998 36.1865 62.6476 36.4719C62.19 36.7411 61.4558 36.8811 60.4502 36.8811Z" fill="white"/>
  <path d="M82.0361 36.8279C81.0625 36.8279 80.3602 36.6879 79.9239 36.4079C79.4877 36.1278 79.2216 35.7401 79.1152 35.2447C79.0088 34.7547 78.9609 34.227 78.9609 33.6615V13.9796C78.9609 13.3818 79.0195 12.8541 79.1418 12.3964C79.2642 11.9387 79.5409 11.5725 79.9771 11.2871C80.4134 11.0071 81.1317 10.8671 82.1425 10.8671C83.1481 10.8671 83.8876 11.0771 84.3611 11.5025C84.8293 11.9225 85.0634 12.6118 85.0634 13.5595L84.5952 14.9865C84.7708 14.5988 85.0634 14.1788 85.4837 13.7211C85.904 13.2634 86.4148 12.8057 87.0213 12.3479C87.6279 11.8902 88.3142 11.524 89.0803 11.2386C89.8465 10.9586 90.6445 10.8186 91.4798 10.8186C92.629 10.8186 93.6772 11.0125 94.6348 11.4002C95.5925 11.7879 96.4438 12.3479 97.1886 13.0911C97.9335 13.8288 98.5879 14.7281 99.1412 15.7835C99.7318 14.8681 100.391 14.0334 101.12 13.2795C101.849 12.5256 102.701 11.9279 103.674 11.4863C104.648 11.0448 105.744 10.824 106.957 10.824C108.973 10.824 110.665 11.3356 112.038 12.3533C113.41 13.3765 114.443 14.825 115.14 16.7043C115.837 18.5891 116.182 20.8292 116.182 23.4355V33.6723C116.182 34.27 116.129 34.8085 116.028 35.2824C115.922 35.7563 115.656 36.1332 115.219 36.4186C114.783 36.6987 114.065 36.8387 113.054 36.8387C112.08 36.8387 111.378 36.6879 110.942 36.3917C110.506 36.0955 110.24 35.7078 110.133 35.2286C110.027 34.7493 109.979 34.2162 109.979 33.6185V23.3817C109.979 22.0785 109.825 20.9531 109.511 20.0053C109.197 19.0576 108.729 18.3252 108.101 17.8136C107.473 17.3021 106.675 17.049 105.701 17.049C104.69 17.049 103.818 17.2967 103.068 17.7867C102.317 18.2821 101.738 18.9983 101.323 19.9515C100.902 20.8992 100.695 22.0624 100.695 23.4355V33.7262C100.695 34.3239 100.61 34.8785 100.434 35.3901C100.258 35.9017 99.9233 36.2894 99.4179 36.5533C98.9124 36.8171 98.1942 36.914 97.2525 36.844C96.348 36.8063 95.6989 36.634 95.2999 36.3163C94.9008 35.9986 94.6561 35.6055 94.571 35.1262C94.4858 34.6524 94.438 34.1516 94.438 33.6238V23.3871C94.438 22.0839 94.289 20.9585 93.9964 20.0107C93.6984 19.063 93.2409 18.3306 92.6131 17.819C91.9853 17.3075 91.1872 17.0544 90.2136 17.0544C89.1335 17.0544 88.2237 17.329 87.4789 17.8729C86.7287 18.4168 86.1648 19.176 85.7817 20.1399C85.3986 21.1092 85.2071 22.1916 85.2071 23.3871V33.7315C85.2071 34.297 85.1486 34.8247 85.0262 35.3147C84.9038 35.8101 84.6272 36.1871 84.1909 36.4509C83.7653 36.6987 83.0417 36.8279 82.0361 36.8279Z" fill="white"/>
  <path d="M142.83 36.7739C141.788 36.7739 141.032 36.58 140.564 36.1923C140.096 35.8046 139.84 35.2769 139.808 34.6092L140.175 32.8698C139.899 33.3275 139.425 33.866 138.766 34.4799C138.106 35.0938 137.244 35.6431 136.185 36.1169C135.126 36.5908 133.828 36.8278 132.301 36.8278C130.668 36.8278 129.13 36.4831 127.689 35.7992C126.247 35.1153 124.97 34.1622 123.858 32.9506C122.746 31.739 121.879 30.3497 121.251 28.7826C120.623 27.2156 120.314 25.5355 120.314 23.7423C120.314 22.0192 120.628 20.3929 121.251 18.8636C121.879 17.3343 122.751 15.9719 123.884 14.771C125.012 13.5756 126.289 12.6332 127.715 11.9493C129.141 11.2654 130.668 10.9208 132.301 10.9208C133.69 10.9208 134.882 11.1146 135.871 11.5024C136.861 11.8901 137.707 12.3747 138.398 12.9563C139.095 13.5379 139.665 14.1464 140.117 14.7764L139.856 13.2471C139.819 12.4716 140.048 11.8847 140.532 11.4808C141.016 11.0769 141.798 10.8723 142.878 10.8723C143.815 10.8723 144.501 11.0231 144.937 11.3193C145.374 11.6208 145.64 12.0301 145.746 12.5578C145.852 13.0855 145.9 13.6671 145.9 14.2971V33.5591C145.9 34.1568 145.847 34.7007 145.746 35.1961C145.64 35.6915 145.374 36.0739 144.937 36.3593C144.506 36.6339 143.804 36.7739 142.83 36.7739ZM133.238 30.6566C134.387 30.6566 135.435 30.3604 136.393 29.7573C137.35 29.1596 138.106 28.3411 138.659 27.3018C139.212 26.2625 139.494 25.1101 139.494 23.8446C139.494 22.5092 139.207 21.3299 138.633 20.3067C138.058 19.289 137.287 18.4759 136.313 17.8781C135.339 17.2804 134.28 16.9788 133.131 16.9788C131.844 16.9788 130.7 17.2858 129.689 17.8997C128.678 18.5136 127.891 19.3428 127.316 20.3821C126.741 21.4214 126.454 22.59 126.454 23.8931C126.454 25.1586 126.747 26.3056 127.343 27.3233C127.933 28.3465 128.742 29.1542 129.769 29.7519C130.796 30.355 131.95 30.6566 133.238 30.6566Z" fill="white"/>
  <path d="M91.4153 66.8436C91.0429 66.8436 90.7396 66.7843 90.5055 66.6712C90.2661 66.5582 90.0905 66.3643 89.9628 66.0951L82.1259 46.7954C81.9184 46.2946 81.8918 45.9392 82.0354 45.7346C82.1791 45.5246 82.4664 45.3092 82.8973 45.0776C83.2059 44.9322 83.4666 44.8515 83.6848 44.8461C83.9029 44.8353 84.0944 44.8999 84.27 45.0345C84.4456 45.1692 84.5945 45.4061 84.7169 45.74L91.4153 62.9179L98.0498 45.9877C98.1935 45.6753 98.3371 45.4169 98.4808 45.2069C98.6244 44.9968 98.8266 44.8784 99.082 44.8461C99.3374 44.8138 99.6513 44.9053 100.024 45.1099C100.598 45.4007 100.886 45.7023 100.886 46.0146C100.886 46.3269 100.806 46.6823 100.641 47.0754L92.8624 66.0627C92.7614 66.3105 92.5858 66.5043 92.3357 66.6389C92.0963 66.7789 91.7877 66.8436 91.4153 66.8436Z" fill="white"/>
  <path d="M106.046 47.98C105.594 47.98 105.254 47.9153 105.03 47.7753C104.801 47.6407 104.652 47.4469 104.583 47.1991C104.509 46.9514 104.477 46.6553 104.477 46.3268C104.477 45.9929 104.514 45.7075 104.583 45.4652C104.652 45.2283 104.807 45.0506 105.046 44.9321C105.285 44.819 105.626 44.7598 106.078 44.7598C106.509 44.7598 106.839 44.8244 107.068 44.9482C107.291 45.0721 107.446 45.2606 107.515 45.5083C107.584 45.756 107.621 46.0629 107.621 46.4129C107.621 46.7253 107.584 46.9999 107.515 47.2422C107.44 47.4792 107.291 47.6623 107.068 47.7915C106.834 47.9153 106.498 47.98 106.046 47.98ZM106.046 66.8434C105.653 66.8434 105.355 66.7842 105.152 66.6711C104.945 66.558 104.817 66.3965 104.769 66.1865C104.716 65.9765 104.695 65.7287 104.695 65.438V53.101C104.695 52.8318 104.727 52.5841 104.785 52.3687C104.849 52.1479 104.977 51.9864 105.168 51.884C105.365 51.7817 105.669 51.7279 106.078 51.7279C106.467 51.7279 106.759 51.7871 106.94 51.9002C107.126 52.0133 107.249 52.1802 107.313 52.401C107.376 52.6218 107.403 52.8749 107.403 53.1657V65.4703C107.403 65.7611 107.371 66.0141 107.313 66.2188C107.249 66.4288 107.121 66.5849 106.929 66.6873C106.727 66.795 106.435 66.8434 106.046 66.8434Z" fill="white"/>
  <path d="M118.481 66.9999C117.247 66.9999 116.145 66.7899 115.177 66.3752C114.209 65.9606 113.395 65.3898 112.724 64.6736C112.054 63.9574 111.543 63.1281 111.181 62.1911C110.82 61.2542 110.639 60.2418 110.639 59.1594C110.639 57.7216 110.969 56.44 111.628 55.3199C112.288 54.1945 113.203 53.306 114.374 52.649C115.544 51.9921 116.885 51.6636 118.385 51.6636C119.412 51.6636 120.332 51.8251 121.146 52.1482C121.96 52.4713 122.652 52.9021 123.227 53.446C123.801 53.9899 124.243 54.593 124.551 55.2553C124.86 55.9231 125.014 56.5854 125.014 57.2531C125.014 58.314 124.77 59.0625 124.275 59.5041C123.78 59.9402 123.174 60.161 122.455 60.161H113.538C113.517 61.0549 113.756 61.8303 114.262 62.4873C114.767 63.1443 115.406 63.6505 116.177 64.0005C116.949 64.3559 117.725 64.5336 118.508 64.5336C119.061 64.5336 119.55 64.5013 119.971 64.442C120.391 64.3828 120.758 64.2966 121.067 64.1943C121.375 64.092 121.636 63.9843 121.854 63.882C122.072 63.7797 122.269 63.672 122.455 63.5697C122.641 63.4674 122.817 63.392 122.982 63.3489C123.147 63.3058 123.322 63.322 123.509 63.3974C123.695 63.4728 123.839 63.6128 123.94 63.8174C124.062 63.9843 124.147 64.1405 124.184 64.2859C124.227 64.4313 124.248 64.5874 124.248 64.7544C124.248 65.0667 124.003 65.3952 123.509 65.7398C123.014 66.0845 122.333 66.3806 121.455 66.6283C120.582 66.876 119.593 66.9999 118.481 66.9999ZM113.544 58.2871H121.29C121.663 58.2871 121.95 58.2332 122.152 58.1309C122.36 58.0286 122.461 57.7486 122.461 57.2855C122.461 56.7254 122.285 56.2031 121.934 55.7238C121.583 55.2446 121.104 54.8622 120.497 54.5661C119.891 54.2699 119.189 54.1299 118.385 54.1299C117.502 54.1299 116.683 54.313 115.932 54.6738C115.182 55.0399 114.592 55.53 114.161 56.1546C113.73 56.7793 113.522 57.4955 113.544 58.2871Z" fill="white"/>
  <path d="M133.293 66.7842C132.984 66.7842 132.74 66.7303 132.569 66.628C132.394 66.5257 132.261 66.3965 132.17 66.2403C132.08 66.0841 132 65.9118 131.942 65.7234L127.191 53.4187C127.089 53.1064 127.042 52.8533 127.052 52.6541C127.063 52.4548 127.143 52.2771 127.297 52.121C127.451 51.9648 127.68 51.8356 127.989 51.7279C128.483 51.5394 128.861 51.4963 129.133 51.5879C129.399 51.6794 129.617 51.9594 129.782 52.4171L133.298 61.9108L136.57 52.6325C136.634 52.4656 136.709 52.3041 136.799 52.1479C136.89 51.9917 137.028 51.8625 137.214 51.7548C137.4 51.6525 137.634 51.5986 137.922 51.5986C138.252 51.5986 138.502 51.6525 138.677 51.7548C138.853 51.8571 138.997 51.9864 139.108 52.1317C139.22 52.2771 139.3 52.4333 139.337 52.6002L142.577 61.97L146.062 52.6002C146.27 52.0779 146.504 51.7494 146.77 51.5986C147.036 51.4532 147.419 51.4748 147.913 51.6633C148.344 51.8087 148.637 52.0241 148.791 52.3041C148.946 52.5841 148.919 52.9664 148.717 53.4457L143.934 65.7503C143.87 65.9172 143.796 66.0788 143.705 66.2349C143.615 66.3911 143.476 66.5203 143.306 66.6226C143.13 66.725 142.902 66.7788 142.609 66.7788C142.316 66.7788 142.088 66.7303 141.917 66.6388C141.747 66.5472 141.609 66.4126 141.518 66.2349C141.428 66.0572 141.338 65.8634 141.258 65.6587L137.954 56.0412L134.623 65.6587C134.538 65.9064 134.453 66.1165 134.362 66.2834C134.272 66.4503 134.139 66.5742 133.974 66.6603C133.809 66.7411 133.58 66.7842 133.293 66.7842Z" fill="white"/>
</svg>