<svg xmlns="http://www.w3.org/2000/svg" width="18" height="23" viewBox="0 0 18 23" fill="none">
<path d="M0 19.125V16.875H2.25V9C2.25 7.44375 2.71875 6.06094 3.65625 4.85156C4.59375 3.64219 5.8125 2.85 7.3125 2.475V1.6875C7.3125 1.21875 7.47656 0.820312 7.80469 0.492187C8.13281 0.164062 8.53125 0 9 0C9.46875 0 9.86719 0.164062 10.1953 0.492187C10.5234 0.820312 10.6875 1.21875 10.6875 1.6875V2.475C12.1875 2.85 13.4062 3.64219 14.3438 4.85156C15.2812 6.06094 15.75 7.44375 15.75 9V16.875H18V19.125H0ZM9 22.5C8.38125 22.5 7.85156 22.2797 7.41094 21.8391C6.97031 21.3984 6.75 20.8687 6.75 20.25H11.25C11.25 20.8687 11.0297 21.3984 10.5891 21.8391C10.1484 22.2797 9.61875 22.5 9 22.5ZM4.5 16.875H13.5V9C13.5 7.7625 13.0594 6.70312 12.1781 5.82187C11.2969 4.94062 10.2375 4.5 9 4.5C7.7625 4.5 6.70313 4.94062 5.82188 5.82187C4.94063 6.70312 4.5 7.7625 4.5 9V16.875Z" fill="#F64C4D"/>
</svg>