<svg width="18" height="19" viewBox="0 0 18 19" fill="none" xmlns="http://www.w3.org/2000/svg">
<path d="M9 9.76953C7.7625 9.76953 6.70313 9.32891 5.82188 8.44766C4.94063 7.56641 4.5 6.50703 4.5 5.26953C4.5 4.03203 4.94063 2.97266 5.82188 2.09141C6.70313 1.21016 7.7625 0.769531 9 0.769531C10.2375 0.769531 11.2969 1.21016 12.1781 2.09141C13.0594 2.97266 13.5 4.03203 13.5 5.26953C13.5 6.50703 13.0594 7.56641 12.1781 8.44766C11.2969 9.32891 10.2375 9.76953 9 9.76953ZM0 18.7695V15.6195C0 14.982 0.164062 14.3961 0.492188 13.8617C0.820312 13.3273 1.25625 12.9195 1.8 12.6383C2.9625 12.057 4.14375 11.6211 5.34375 11.3305C6.54375 11.0398 7.7625 10.8945 9 10.8945C10.2375 10.8945 11.4563 11.0398 12.6562 11.3305C13.8562 11.6211 15.0375 12.057 16.2 12.6383C16.7438 12.9195 17.1797 13.3273 17.5078 13.8617C17.8359 14.3961 18 14.982 18 15.6195V18.7695H0ZM2.25 16.5195H15.75V15.6195C15.75 15.4133 15.6984 15.2258 15.5953 15.057C15.4922 14.8883 15.3562 14.757 15.1875 14.6633C14.175 14.157 13.1531 13.7773 12.1219 13.5242C11.0906 13.2711 10.05 13.1445 9 13.1445C7.95 13.1445 6.90937 13.2711 5.87812 13.5242C4.84687 13.7773 3.825 14.157 2.8125 14.6633C2.64375 14.757 2.50781 14.8883 2.40469 15.057C2.30156 15.2258 2.25 15.4133 2.25 15.6195V16.5195ZM9 7.51953C9.61875 7.51953 10.1484 7.29922 10.5891 6.85859C11.0297 6.41797 11.25 5.88828 11.25 5.26953C11.25 4.65078 11.0297 4.12109 10.5891 3.68047C10.1484 3.23984 9.61875 3.01953 9 3.01953C8.38125 3.01953 7.85156 3.23984 7.41094 3.68047C6.97031 4.12109 6.75 4.65078 6.75 5.26953C6.75 5.88828 6.97031 6.41797 7.41094 6.85859C7.85156 7.29922 8.38125 7.51953 9 7.51953Z" fill="white"/>
</svg>
