<svg width="18" height="19" viewBox="0 0 18 19" fill="none" xmlns="http://www.w3.org/2000/svg">
<path d="M9 9.23047C7.7625 9.23047 6.70313 8.78984 5.82188 7.90859C4.94063 7.02734 4.5 5.96797 4.5 4.73047C4.5 3.49297 4.94063 2.43359 5.82188 1.55234C6.70313 0.671094 7.7625 0.230469 9 0.230469C10.2375 0.230469 11.2969 0.671094 12.1781 1.55234C13.0594 2.43359 13.5 3.49297 13.5 4.73047C13.5 5.96797 13.0594 7.02734 12.1781 7.90859C11.2969 8.78984 10.2375 9.23047 9 9.23047ZM0 18.2305V15.0805C0 14.443 0.164062 13.857 0.492188 13.3227C0.820312 12.7883 1.25625 12.3805 1.8 12.0992C2.9625 11.518 4.14375 11.082 5.34375 10.7914C6.54375 10.5008 7.7625 10.3555 9 10.3555C10.2375 10.3555 11.4563 10.5008 12.6562 10.7914C13.8562 11.082 15.0375 11.518 16.2 12.0992C16.7438 12.3805 17.1797 12.7883 17.5078 13.3227C17.8359 13.857 18 14.443 18 15.0805V18.2305H0ZM2.25 15.9805H15.75V15.0805C15.75 14.8742 15.6984 14.6867 15.5953 14.518C15.4922 14.3492 15.3562 14.218 15.1875 14.1242C14.175 13.618 13.1531 13.2383 12.1219 12.9852C11.0906 12.732 10.05 12.6055 9 12.6055C7.95 12.6055 6.90937 12.732 5.87812 12.9852C4.84687 13.2383 3.825 13.618 2.8125 14.1242C2.64375 14.218 2.50781 14.3492 2.40469 14.518C2.30156 14.6867 2.25 14.8742 2.25 15.0805V15.9805ZM9 6.98047C9.61875 6.98047 10.1484 6.76016 10.5891 6.31953C11.0297 5.87891 11.25 5.34922 11.25 4.73047C11.25 4.11172 11.0297 3.58203 10.5891 3.14141C10.1484 2.70078 9.61875 2.48047 9 2.48047C8.38125 2.48047 7.85156 2.70078 7.41094 3.14141C6.97031 3.58203 6.75 4.11172 6.75 4.73047C6.75 5.34922 6.97031 5.87891 7.41094 6.31953C7.85156 6.76016 8.38125 6.98047 9 6.98047Z" fill="#697077"/>
</svg>
