<svg width="25" height="24" viewBox="0 0 25 24" fill="none" xmlns="http://www.w3.org/2000/svg">
<mask id="mask0_1556_2295" style="mask-type:alpha" maskUnits="userSpaceOnUse" x="0" y="0" width="25" height="24">
<rect x="0.5" width="24" height="24" fill="black"/>
</mask>
<g mask="url(#mask0_1556_2295)">
<path d="M12.5 12C11.2625 12 10.2031 11.5594 9.32188 10.6781C8.44063 9.79688 8 8.7375 8 7.5C8 6.2625 8.44063 5.20313 9.32188 4.32188C10.2031 3.44063 11.2625 3 12.5 3C13.7375 3 14.7969 3.44063 15.6781 4.32188C16.5594 5.20313 17 6.2625 17 7.5C17 8.7375 16.5594 9.79688 15.6781 10.6781C14.7969 11.5594 13.7375 12 12.5 12ZM3.5 21V17.85C3.5 17.2125 3.66406 16.6266 3.99219 16.0922C4.32031 15.5578 4.75625 15.15 5.3 14.8688C6.4625 14.2875 7.64375 13.8516 8.84375 13.5609C10.0438 13.2703 11.2625 13.125 12.5 13.125C13.7375 13.125 14.9562 13.2703 16.1562 13.5609C17.3563 13.8516 18.5375 14.2875 19.7 14.8688C20.2438 15.15 20.6797 15.5578 21.0078 16.0922C21.3359 16.6266 21.5 17.2125 21.5 17.85V21H3.5ZM5.75 18.75H19.25V17.85C19.25 17.6437 19.1984 17.4562 19.0953 17.2875C18.9922 17.1187 18.8563 16.9875 18.6875 16.8938C17.675 16.3875 16.6531 16.0078 15.6219 15.7547C14.5906 15.5016 13.55 15.375 12.5 15.375C11.45 15.375 10.4094 15.5016 9.37812 15.7547C8.34687 16.0078 7.325 16.3875 6.3125 16.8938C6.14375 16.9875 6.00781 17.1187 5.90469 17.2875C5.80156 17.4562 5.75 17.6437 5.75 17.85V18.75ZM12.5 9.75C13.1188 9.75 13.6484 9.52969 14.0891 9.08906C14.5297 8.64844 14.75 8.11875 14.75 7.5C14.75 6.88125 14.5297 6.35156 14.0891 5.91094C13.6484 5.47031 13.1188 5.25 12.5 5.25C11.8812 5.25 11.3516 5.47031 10.9109 5.91094C10.4703 6.35156 10.25 6.88125 10.25 7.5C10.25 8.11875 10.4703 8.64844 10.9109 9.08906C11.3516 9.52969 11.8812 9.75 12.5 9.75Z" fill="white"/>
</g>
</svg>
