<svg width="25" height="24" viewBox="0 0 25 24" fill="none" xmlns="http://www.w3.org/2000/svg">
<mask id="mask0_1556_2290" style="mask-type:alpha" maskUnits="userSpaceOnUse" x="0" y="0" width="25" height="24">
<rect x="0.5" width="24" height="24" fill="#D9D9D9"/>
</mask>
<g mask="url(#mask0_1556_2290)">
<path d="M8.49976 12.0001V10.0001H16.4998V12.0001H8.49976ZM8.49976 8.00006V6.00006H16.4998V8.00006H8.49976ZM6.49976 14.0001H13.9998C14.4831 14.0001 14.9331 14.1042 15.3498 14.3126C15.7664 14.5209 16.1164 14.8167 16.3998 15.2001L18.4998 17.9501V4.00006H6.49976V14.0001ZM6.49976 20.0001H17.5498L14.8248 16.4251C14.7248 16.2917 14.6039 16.1876 14.4623 16.1126C14.3206 16.0376 14.1664 16.0001 13.9998 16.0001H6.49976V20.0001ZM18.4998 22.0001H6.49976C5.94976 22.0001 5.47892 21.8042 5.08726 21.4126C4.69559 21.0209 4.49976 20.5501 4.49976 20.0001V4.00006C4.49976 3.45006 4.69559 2.97923 5.08726 2.58756C5.47892 2.19589 5.94976 2.00006 6.49976 2.00006H18.4998C19.0498 2.00006 19.5206 2.19589 19.9123 2.58756C20.3039 2.97923 20.4998 3.45006 20.4998 4.00006V20.0001C20.4998 20.5501 20.3039 21.0209 19.9123 21.4126C19.5206 21.8042 19.0498 22.0001 18.4998 22.0001Z" fill="white"/>
</g>
</svg>
