<svg width="22" height="21" viewBox="0 0 22 21" fill="none" xmlns="http://www.w3.org/2000/svg">
<path d="M8.24995 20.2305L7.84995 17.0305C7.63328 16.9471 7.42912 16.8471 7.23745 16.7305C7.04578 16.6138 6.85828 16.4888 6.67495 16.3555L3.69995 17.6055L0.949951 12.8555L3.52495 10.9055C3.50828 10.7888 3.49995 10.6763 3.49995 10.568V9.89297C3.49995 9.78464 3.50828 9.67214 3.52495 9.55547L0.949951 7.60547L3.69995 2.85547L6.67495 4.10547C6.85828 3.97214 7.04995 3.84714 7.24995 3.73047C7.44995 3.6138 7.64995 3.5138 7.84995 3.43047L8.24995 0.230469H13.75L14.15 3.43047C14.3666 3.5138 14.5708 3.6138 14.7625 3.73047C14.9541 3.84714 15.1416 3.97214 15.325 4.10547L18.3 2.85547L21.05 7.60547L18.475 9.55547C18.4916 9.67214 18.5 9.78464 18.5 9.89297V10.568C18.5 10.6763 18.4833 10.7888 18.45 10.9055L21.025 12.8555L18.275 17.6055L15.325 16.3555C15.1416 16.4888 14.95 16.6138 14.75 16.7305C14.55 16.8471 14.35 16.9471 14.15 17.0305L13.75 20.2305H8.24995ZM11.05 13.7305C12.0166 13.7305 12.8416 13.3888 13.525 12.7055C14.2083 12.0221 14.55 11.1971 14.55 10.2305C14.55 9.2638 14.2083 8.4388 13.525 7.75547C12.8416 7.07214 12.0166 6.73047 11.05 6.73047C10.0666 6.73047 9.23745 7.07214 8.56245 7.75547C7.88745 8.4388 7.54995 9.2638 7.54995 10.2305C7.54995 11.1971 7.88745 12.0221 8.56245 12.7055C9.23745 13.3888 10.0666 13.7305 11.05 13.7305ZM11.05 11.7305C10.6333 11.7305 10.2791 11.5846 9.98745 11.293C9.69578 11.0013 9.54995 10.6471 9.54995 10.2305C9.54995 9.8138 9.69578 9.45964 9.98745 9.16797C10.2791 8.8763 10.6333 8.73047 11.05 8.73047C11.4666 8.73047 11.8208 8.8763 12.1125 9.16797C12.4041 9.45964 12.55 9.8138 12.55 10.2305C12.55 10.6471 12.4041 11.0013 12.1125 11.293C11.8208 11.5846 11.4666 11.7305 11.05 11.7305ZM9.99995 18.2305H11.975L12.325 15.5805C12.8416 15.4471 13.3208 15.2513 13.7625 14.993C14.2041 14.7346 14.6083 14.4221 14.975 14.0555L17.45 15.0805L18.425 13.3805L16.275 11.7555C16.3583 11.5221 16.4166 11.2763 16.45 11.018C16.4833 10.7596 16.5 10.4971 16.5 10.2305C16.5 9.9638 16.4833 9.7013 16.45 9.44297C16.4166 9.18464 16.3583 8.9388 16.275 8.70547L18.425 7.08047L17.45 5.38047L14.975 6.43047C14.6083 6.04714 14.2041 5.7263 13.7625 5.46797C13.3208 5.20964 12.8416 5.0138 12.325 4.88047L12 2.23047H10.025L9.67495 4.88047C9.15829 5.0138 8.67912 5.20964 8.23745 5.46797C7.79578 5.7263 7.39162 6.0388 7.02495 6.40547L4.54995 5.38047L3.57495 7.08047L5.72495 8.68047C5.64162 8.93047 5.58328 9.18047 5.54995 9.43047C5.51662 9.68047 5.49995 9.94713 5.49995 10.2305C5.49995 10.4971 5.51662 10.7555 5.54995 11.0055C5.58328 11.2555 5.64162 11.5055 5.72495 11.7555L3.57495 13.3805L4.54995 15.0805L7.02495 14.0305C7.39162 14.4138 7.79578 14.7346 8.23745 14.993C8.67912 15.2513 9.15829 15.4471 9.67495 15.5805L9.99995 18.2305Z" fill="#697077"/>
</svg>
