<svg width="22" height="21" viewBox="0 0 22 21" fill="none" xmlns="http://www.w3.org/2000/svg">
<path d="M8.2502 20.7695L7.8502 17.5695C7.63353 17.4862 7.42936 17.3862 7.2377 17.2695C7.04603 17.1529 6.85853 17.0279 6.6752 16.8945L3.7002 18.1445L0.950195 13.3945L3.5252 11.4445C3.50853 11.3279 3.5002 11.2154 3.5002 11.107V10.432C3.5002 10.3237 3.50853 10.2112 3.5252 10.0945L0.950195 8.14453L3.7002 3.39453L6.6752 4.64453C6.85853 4.5112 7.0502 4.3862 7.2502 4.26953C7.4502 4.15286 7.6502 4.05286 7.8502 3.96953L8.2502 0.769531H13.7502L14.1502 3.96953C14.3669 4.05286 14.571 4.15286 14.7627 4.26953C14.9544 4.3862 15.1419 4.5112 15.3252 4.64453L18.3002 3.39453L21.0502 8.14453L18.4752 10.0945C18.4919 10.2112 18.5002 10.3237 18.5002 10.432V11.107C18.5002 11.2154 18.4835 11.3279 18.4502 11.4445L21.0252 13.3945L18.2752 18.1445L15.3252 16.8945C15.1419 17.0279 14.9502 17.1529 14.7502 17.2695C14.5502 17.3862 14.3502 17.4862 14.1502 17.5695L13.7502 20.7695H8.2502ZM11.0502 14.2695C12.0169 14.2695 12.8419 13.9279 13.5252 13.2445C14.2085 12.5612 14.5502 11.7362 14.5502 10.7695C14.5502 9.80286 14.2085 8.97786 13.5252 8.29453C12.8419 7.6112 12.0169 7.26953 11.0502 7.26953C10.0669 7.26953 9.2377 7.6112 8.5627 8.29453C7.8877 8.97786 7.5502 9.80286 7.5502 10.7695C7.5502 11.7362 7.8877 12.5612 8.5627 13.2445C9.2377 13.9279 10.0669 14.2695 11.0502 14.2695ZM11.0502 12.2695C10.6335 12.2695 10.2794 12.1237 9.9877 11.832C9.69603 11.5404 9.5502 11.1862 9.5502 10.7695C9.5502 10.3529 9.69603 9.9987 9.9877 9.70703C10.2794 9.41536 10.6335 9.26953 11.0502 9.26953C11.4669 9.26953 11.821 9.41536 12.1127 9.70703C12.4044 9.9987 12.5502 10.3529 12.5502 10.7695C12.5502 11.1862 12.4044 11.5404 12.1127 11.832C11.821 12.1237 11.4669 12.2695 11.0502 12.2695ZM10.0002 18.7695H11.9752L12.3252 16.1195C12.8419 15.9862 13.321 15.7904 13.7627 15.532C14.2044 15.2737 14.6085 14.9612 14.9752 14.5945L17.4502 15.6195L18.4252 13.9195L16.2752 12.2945C16.3585 12.0612 16.4169 11.8154 16.4502 11.557C16.4835 11.2987 16.5002 11.0362 16.5002 10.7695C16.5002 10.5029 16.4835 10.2404 16.4502 9.98203C16.4169 9.7237 16.3585 9.47787 16.2752 9.24453L18.4252 7.61953L17.4502 5.91953L14.9752 6.96953C14.6085 6.5862 14.2044 6.26536 13.7627 6.00703C13.321 5.7487 12.8419 5.55286 12.3252 5.41953L12.0002 2.76953H10.0252L9.6752 5.41953C9.15853 5.55286 8.67936 5.7487 8.2377 6.00703C7.79603 6.26536 7.39186 6.57786 7.0252 6.94453L4.5502 5.91953L3.5752 7.61953L5.7252 9.21953C5.64186 9.46953 5.58353 9.71953 5.5502 9.96953C5.51686 10.2195 5.5002 10.4862 5.5002 10.7695C5.5002 11.0362 5.51686 11.2945 5.5502 11.5445C5.58353 11.7945 5.64186 12.0445 5.7252 12.2945L3.5752 13.9195L4.5502 15.6195L7.0252 14.5695C7.39186 14.9529 7.79603 15.2737 8.2377 15.532C8.67936 15.7904 9.15853 15.9862 9.6752 16.1195L10.0002 18.7695Z" fill="white"/>
</svg>
